<svg width="31" height="42" viewBox="0 0 31 42" fill="none" xmlns="http://www.w3.org/2000/svg">
<path d="M21.9583 15.7731C21.9583 19.4699 19.0521 22.3452 15.5 22.3452C11.8672 22.3452 9.04167 19.4699 9.04167 15.7731C9.04167 12.1584 11.8672 9.20098 15.5 9.20098C19.0521 9.20098 21.9583 12.1584 21.9583 15.7731ZM15.5 19.7164C17.599 19.7164 19.375 17.9912 19.375 15.7731C19.375 13.6372 17.599 11.8298 15.5 11.8298C13.3203 11.8298 11.625 13.6372 11.625 15.7731C11.625 17.9912 13.3203 19.7164 15.5 19.7164ZM31 15.7731C31 23.0024 21.5547 35.7359 17.3568 41.0758C16.388 42.3081 14.5313 42.3081 13.5625 41.0758C9.36458 35.7359 0 23.0024 0 15.7731C0 7.06504 6.86198 0 15.5 0C24.0573 0 31 7.06504 31 15.7731ZM15.5 2.62885C8.3151 2.62885 2.58333 8.54377 2.58333 15.7731C2.58333 17.0875 2.98698 18.8127 3.875 21.0308C4.76302 23.1667 5.97396 25.467 7.42708 27.7672C10.1719 32.2856 13.401 36.6396 15.5 39.2685C17.5182 36.6396 20.7474 32.2856 23.4922 27.7672C24.9453 25.467 26.1563 23.1667 27.0443 21.0308C27.9323 18.8127 28.4167 17.0875 28.4167 15.7731C28.4167 8.54377 22.6042 2.62885 15.5 2.62885Z" fill="#2E3192"/>
</svg>
